<?xml version="1.0" encoding="utf-8"?>
<!-- Generator: Adobe Illustrator 24.0.1, SVG Export Plug-In . SVG Version: 6.00 Build 0)  -->
<svg version="1.1" id="Layer_1" xmlns="http://www.w3.org/2000/svg" xmlns:xlink="http://www.w3.org/1999/xlink" x="0px" y="0px"
	 viewBox="0 0 770.8 91.7" style="enable-background:new 0 0 770.8 91.7;" xml:space="preserve">
<g>
	<path d="M9,81.9V10.6h15.1v71.4H9z"/>
	<path d="M105.4,81.9H86.2l-31.1-54h-0.4c0.6,9.5,0.9,16.3,0.9,20.4v33.6H42.1V10.6h19.1l31,53.5h0.3c-0.5-9.3-0.7-15.8-0.7-19.7
		V10.6h13.6V81.9z"/>
	<path d="M150.9,81.9h-15.1V23.2h-19.4V10.6h53.9v12.6h-19.4V81.9z"/>
	<path d="M222.4,81.9h-41.1V10.6h41.1V23h-26v15.7h24.2V51h-24.2v18.4h26V81.9z"/>
	<path d="M237.3,81.9V10.6h15.1v58.9h29v12.5H237.3z"/>
	<path d="M293.8,81.9V10.6h15.1v58.9h29v12.5H293.8z"/>
	<path d="M350.3,81.9V10.6h15.1v71.4H350.3z"/>
	<path d="M427.1,81.9l-5.2-17h-26l-5.2,17h-16.3l25.2-71.7h18.5l25.3,71.7H427.1z M418.3,52.3c-4.8-15.4-7.5-24.1-8.1-26.1
		c-0.6-2-1-3.6-1.3-4.8c-1.1,4.2-4.2,14.5-9.2,30.9H418.3z"/>
	<path d="M501.7,32.8c0,7.7-2.4,13.6-7.2,17.6c-4.8,4.1-11.6,6.1-20.5,6.1h-6.5v25.4h-15.1V10.6h22.8c8.7,0,15.2,1.9,19.8,5.6
		C499.5,19.9,501.7,25.4,501.7,32.8z M467.5,44.2h5c4.7,0,8.1-0.9,10.4-2.8c2.3-1.8,3.5-4.5,3.5-8c0-3.5-1-6.2-2.9-7.9
		c-1.9-1.7-5-2.5-9.1-2.5h-6.9V44.2z"/>
	<path d="M564.5,32.8c0,7.7-2.4,13.6-7.2,17.6c-4.8,4.1-11.6,6.1-20.5,6.1h-6.5v25.4h-15.1V10.6H538c8.7,0,15.2,1.9,19.8,5.6
		C562.2,19.9,564.5,25.4,564.5,32.8z M530.3,44.2h5c4.7,0,8.1-0.9,10.4-2.8c2.3-1.8,3.5-4.5,3.5-8c0-3.5-1-6.2-2.9-7.9
		c-1.9-1.7-5-2.5-9.1-2.5h-6.9V44.2z"/>
	<path d="M620.1,62.1c0,6.4-2.3,11.5-7,15.2s-11.1,5.6-19.4,5.6c-7.6,0-14.4-1.4-20.2-4.3V64.6c4.8,2.1,8.9,3.7,12.2,4.5
		c3.3,0.9,6.4,1.3,9.2,1.3c3.3,0,5.9-0.6,7.6-1.9c1.8-1.3,2.7-3.2,2.7-5.7c0-1.4-0.4-2.6-1.2-3.7c-0.8-1.1-1.9-2.1-3.4-3.1
		c-1.5-1-4.6-2.6-9.3-4.8c-4.4-2.1-7.6-4-9.8-5.9c-2.2-1.9-3.9-4.1-5.2-6.6c-1.3-2.5-2-5.4-2-8.8c0-6.3,2.1-11.3,6.4-14.9
		c4.3-3.6,10.2-5.4,17.7-5.4c3.7,0,7.3,0.4,10.6,1.3s6.9,2.1,10.6,3.7l-4.9,11.8c-3.8-1.6-7-2.7-9.4-3.3c-2.5-0.6-4.9-0.9-7.3-0.9
		c-2.9,0-5.1,0.7-6.6,2c-1.5,1.3-2.3,3.1-2.3,5.2c0,1.3,0.3,2.5,0.9,3.5c0.6,1,1.6,2,3,2.9c1.4,0.9,4.5,2.6,9.6,5
		c6.7,3.2,11.2,6.4,13.7,9.6C618.9,53.5,620.1,57.5,620.1,62.1z"/>
	<path d="M629.8,75c0-2.7,0.7-4.8,2.2-6.2c1.5-1.4,3.6-2.1,6.4-2.1c2.7,0,4.8,0.7,6.3,2.1c1.5,1.4,2.2,3.5,2.2,6.2
		c0,2.6-0.7,4.6-2.2,6.1c-1.5,1.5-3.6,2.2-6.3,2.2c-2.7,0-4.9-0.7-6.3-2.2C630.5,79.6,629.8,77.6,629.8,75z"/>
	<path d="M661.6,81.9V10.6h15.1v71.4H661.6z"/>
	<path d="M759.5,46.2c0,11.8-2.9,20.9-8.8,27.2s-14.3,9.5-25.2,9.5s-19.3-3.2-25.2-9.5s-8.8-15.5-8.8-27.3c0-11.9,2.9-21,8.8-27.2
		c5.9-6.3,14.3-9.4,25.3-9.4c11,0,19.4,3.2,25.2,9.5C756.6,25.2,759.5,34.3,759.5,46.2z M707.4,46.2c0,8,1.5,14,4.5,18
		c3,4,7.6,6.1,13.6,6.1c12.1,0,18.1-8,18.1-24.1c0-16.1-6-24.1-18-24.1c-6,0-10.6,2-13.6,6.1C708.9,32.2,707.4,38.2,707.4,46.2z"/>
</g>
</svg>
